<svg xmlns="http://www.w3.org/2000/svg" version="1.1" xmlns:xlink="http://www.w3.org/1999/xlink" width="512" height="512"><svg version="1.1" id="SvgjsSvg1001" xmlns="http://www.w3.org/2000/svg" xmlns:xlink="http://www.w3.org/1999/xlink" viewBox="0 0 512 512" xml:space="preserve">
<path style="fill:#CCCCCC;" d="M256,512L256,512c-19.374,0-35.081-15.707-35.081-35.081v-8.472h70.163v8.472
	C291.081,496.293,275.376,512,256,512z"></path>
<path style="fill:#B3B3B3;" d="M240.222,476.919v-8.472h-19.303v8.472C220.919,496.293,236.626,512,256,512l0,0
	c3.349,0,6.584-0.479,9.652-1.356C250.972,506.451,240.222,492.944,240.222,476.919z"></path>
<path style="fill:#F4BD64;" d="M424.777,168.777C424.777,75.564,349.214,0,256,0C162.788,0,87.223,75.564,87.223,168.777
	c0,55.995,27.275,105.611,69.257,136.313h-0.007v95.57c0,41.373,199.052,41.373,199.052,0v-95.57h-0.005
	C397.501,274.388,424.777,224.772,424.777,168.777z"></path>
<g>
	<path style="fill:#DDA758;" d="M157.481,168.779c0,55.995,15.924,105.602,40.435,136.305h-0.013v95.571
		c0,41.372,19.58,74.911,43.739,74.911H231.39c-41.372,0-74.911-33.54-74.911-74.911v-95.571
		c-41.97-30.716-69.252-80.31-69.252-136.305c0-92.787,74.885-168.089,167.503-168.765
		C200.908,1.185,157.481,76.292,157.481,168.779z"></path>
	<polyline style="fill:#DDA758;" points="296.981,321.774 296.981,253.766 215.019,253.766 215.019,321.774 	"></polyline>
	<rect x="246.24" y="206.936" style="fill:#DDA758;" width="19.515" height="46.833"></rect>
	<path style="fill:#DDA758;" d="M256,216.69c-21.746,0-39.437-17.691-39.437-39.437c0-21.745,17.691-39.437,39.437-39.437
		s39.437,17.691,39.437,39.437S277.746,216.69,256,216.69z M256,157.332c-10.986,0-19.922,8.937-19.922,19.922
		s8.937,19.922,19.922,19.922s19.922-8.937,19.922-19.922S266.986,157.332,256,157.332z"></path>
</g>
<path style="fill:#4EB79B;" d="M355.531,305.085v95.571c0,41.372-33.54,74.911-74.911,74.911h-49.23
	c-41.372,0-74.911-33.54-74.911-74.911v-95.571H355.531z"></path>
<g>
	<path style="fill:#40A084;" d="M244.863,475.567h-13.478c-41.372,0-74.911-33.54-74.911-74.911v-95.571h54.499v95.571
		C210.973,442.027,226.142,475.567,244.863,475.567z"></path>
	<path style="fill:#40A084;" d="M355.542,381.91c-0.751,0-1.512-0.065-2.277-0.2l-199.052-35.126
		c-7.076-1.248-11.8-7.996-10.551-15.072c1.249-7.076,8.001-11.801,15.072-10.551l199.052,35.126
		c7.076,1.248,11.8,7.996,10.551,15.072C367.225,377.469,361.736,381.91,355.542,381.91z"></path>
	<path style="fill:#40A084;" d="M353.369,431.613c-0.751,0-1.51-0.065-2.275-0.199l-196.88-34.737
		c-7.076-1.248-11.8-7.996-10.552-15.072c1.249-7.076,7.996-11.803,15.072-10.551l196.88,34.735
		c7.076,1.249,11.8,7.997,10.552,15.072C365.052,427.173,359.563,431.613,353.369,431.613z"></path>
</g>
</svg><style>@media (prefers-color-scheme: light) { :root { filter: none; } }
@media (prefers-color-scheme: dark) { :root { filter: none; } }
</style></svg>