<svg xmlns="http://www.w3.org/2000/svg" version="1.1" xmlns:xlink="http://www.w3.org/1999/xlink" width="88px" height="88px"><svg width="88px" height="88px" viewBox="0 0 8800 8800" xmlns="http://www.w3.org/2000/svg">
    <defs>
        <style type="text/css">
            .fil0 { fill: #fefefe; }
            .fil1 { fill: #2b2a29; }
            .fil3 { fill: #e4242d; }
            .fil4 { fill: #f29a25; }
        </style>
    </defs>
    <g transform="matrix(4.1145 0 0 4.1145 -12.945 1174.5)">
        <path class="fil1" d="m1247.7 950.86c27.94 0 41.91-12.28 56.72-41.49l98.219-193.46v273.05c0 27.52 0.85 37.25 8.04 51.65 8.89 16.51 27.94 27.94 51.23 27.94 23.28 0 42.33-11.43 51.22-27.94 7.2-14.4 8.04-24.13 8.04-51.65v-456.78c0-25.82-3.38-42.76-17.78-57.15-10.58-10.58-23.7-16.09-39.79-16.09-13.97 0-24.55 2.54-35.14 9.74-11.85 7.62-22.43 22.01-30.05 36.41l-150.71 287.02-150.71-287.02c-7.62-14.4-18.2-28.79-30.06-36.41-10.58-7.2-21.16-9.74-35.13-9.74-16.09 0-29.21 5.51-39.8 16.09-14.39 14.39-17.78 31.33-17.78 57.15v456.78c0 27.52 0.85 37.25 8.05 51.65 8.89 16.51 27.94 27.94 51.22 27.94s42.33-11.43 51.22-27.94c7.2-14.4 8.05-24.13 8.05-51.65v-273.05l98.209 193.46c14.82 29.21 28.79 41.49 56.73 41.49z"></path>
        <path class="fil1" d="m1906 1047.2v268.5c0 26.92-10.29 51.65-26.84 69.81-17.8 19.49-42.68 31.61-70.32 31.61h-1276.8v-106h1268v-263.92z"></path>
        <path class="fil1" d="m635.8 701.82c2.33 0 4.63 0.15 6.88 0.44h49.01c49.95 0 77.75-27.94 77.75-69.43 0-41.48-27.8-69.42-77.75-69.42h-115.29v138.41zm8.75 106.28c-2.85 0.47-5.77 0.72-8.75 0.72h-59.4v147.44h122.91c53.34 0 78.59-33.86 78.59-74.5s-25.25-73.66-78.59-73.66zm-186.69 0.72h-299.78c-24.41 0-46.63-10.1-62.74-26.31-16.05-16.17-26.03-38.39-26.03-62.71v-551.93c0-24.33 9.99-46.54 26.03-62.71 16.11-16.21 38.33-26.31 62.74-26.31h1652.3c24.41 0 46.63 10.1 62.74 26.31 16.04 16.17 26.03 38.38 26.03 62.71v471.59h-107v-453.61h-1615.8v515.97h281.55v-171.43c0-17.36 0-38.95 16.51-55.46s38.1-16.51 55.46-16.51h171.17c117.97 0 186.97 66.04 186.97 169.33 0 66.89-44.45 110.07-75.35 124.47 36.83 16.93 83.82 55.03 83.82 135.46 0 112.61-77.47 173.57-185.28 173.57h-181.33c-17.36 0-38.95 0-55.46-16.51s-16.51-38.1-16.51-55.46z"></path>
        <path class="fil3" d="m1659.7 639.46h372.4c25.65 0 46.63 21.01 46.63 46.63v155.45c0 25.62-21.01 46.63-46.63 46.63h-372.4c-25.62 0-46.63-20.98-46.63-46.63v-155.45c0-25.65 20.98-46.63 46.63-46.63z"></path>
        <path class="fil4" d="m112.97 1240.3h372.4c25.65 0 46.63 20.99 46.63 46.63v155.45c0 25.64-20.99 46.63-46.63 46.63h-372.4c-25.64 0-46.63-20.98-46.63-46.63v-155.45c0-25.65 20.98-46.63 46.63-46.63z"></path>
    </g>
</svg><style>@media (prefers-color-scheme: light) { :root { filter: none; } }
@media (prefers-color-scheme: dark) { :root { filter: none; } }
</style></svg>