<?xml version="1.0" encoding="UTF-8" standalone="no"?>
<!-- Creator: CorelDRAW -->

<svg
   width="88mm"
   height="88mm"
   clip-rule="evenodd"
   fill-rule="evenodd"
   image-rendering="optimizeQuality"
   shape-rendering="geometricPrecision"
   text-rendering="geometricPrecision"
   version="1.1"
   viewBox="0 0 8799.9997 8800.0002"
   xml:space="preserve"
   id="svg6"
   sodipodi:docname="icon.svg"
   inkscape:version="1.4 (86a8ad7, 2024-10-11)"
   xmlns:inkscape="http://www.inkscape.org/namespaces/inkscape"
   xmlns:sodipodi="http://sodipodi.sourceforge.net/DTD/sodipodi-0.dtd"
   xmlns="http://www.w3.org/2000/svg"
   xmlns:svg="http://www.w3.org/2000/svg"><sodipodi:namedview
   id="namedview6"
   pagecolor="#ffffff"
   bordercolor="#000000"
   borderopacity="0.25"
   inkscape:showpageshadow="2"
   inkscape:pageopacity="0.0"
   inkscape:pagecheckerboard="0"
   inkscape:deskcolor="#d1d1d1"
   inkscape:document-units="mm"
   showgrid="false"
   inkscape:zoom="1"
   inkscape:cx="156.5"
   inkscape:cy="109.5"
   inkscape:window-width="1920"
   inkscape:window-height="1017"
   inkscape:window-x="-8"
   inkscape:window-y="-8"
   inkscape:window-maximized="1"
   inkscape:current-layer="svg6" />
 <defs
   id="defs1"><style
   type="text/css"
   id="style1">
   <![CDATA[
    .fil0 {fill:#FEFEFE}
    .fil1 {fill:#2B2A29}
    .fil3 {fill:#E4242D}
    .fil4 {fill:#F29A25}
    .fil5 {fill:#FEFEFE;fill-rule:nonzero}
    .fil2 {fill:#2B2A29;fill-rule:nonzero}
   ]]>
  </style>
  
  
  
  
  
  
  
  
  
  
  
  
  
  
  
  
  
  
  
  
  
  
  
  
  
 </defs>
 <g
   transform="matrix(4.1145,0,0,4.1145,-12.945203,1174.5201)"
   id="g5"><path
     d="m 1247.7,950.86 c 27.94,0 41.91,-12.28 56.72,-41.49 l 98.219,-193.46 v 273.05 c 0,27.52 0.85,37.25 8.04,51.65 8.89,16.51 27.94,27.94 51.23,27.94 23.28,0 42.33,-11.43 51.22,-27.94 7.2,-14.4 8.04,-24.13 8.04,-51.65 V 532.18 c 0,-25.82 -3.38,-42.76 -17.78,-57.15 -10.58,-10.58 -23.7,-16.09 -39.79,-16.09 -13.97,0 -24.55,2.54 -35.14,9.74 -11.85,7.62 -22.43,22.01 -30.05,36.41 l -150.71,287.02 -150.71,-287.02 c -7.62,-14.4 -18.2,-28.79 -30.06,-36.41 -10.58,-7.2 -21.16,-9.74 -35.13,-9.74 -16.09,0 -29.21,5.51 -39.8,16.09 -14.39,14.39 -17.78,31.33 -17.78,57.15 v 456.78 c 0,27.52 0.85,37.25 8.05,51.65 8.89,16.51 27.94,27.94 51.22,27.94 23.28,0 42.33,-11.43 51.22,-27.94 7.2,-14.4 8.05,-24.13 8.05,-51.65 V 715.91 l 98.209,193.46 c 14.82,29.21 28.79,41.49 56.73,41.49 z"
     id="path1"
     style="fill:#2b2a29;fill-opacity:1" /><path
     d="m 1906,1047.2 v 268.5 c 0,26.92 -10.29,51.65 -26.84,69.81 -17.8,19.49 -42.68,31.61 -70.32,31.61 H 532.04 v -106 h 1268 V 1047.2 Z"
     id="path2"
     style="fill:#2b2a29;fill-opacity:1" /><path
     d="m 635.8,701.82 c 2.33,0 4.63,0.15 6.88,0.44 h 49.01 c 49.95,0 77.75,-27.94 77.75,-69.43 0,-41.48 -27.8,-69.42 -77.75,-69.42 H 576.4 v 138.41 z m 8.75,106.28 c -2.85,0.47 -5.77,0.72 -8.75,0.72 h -59.4 v 147.44 h 122.91 c 53.34,0 78.59,-33.86 78.59,-74.5 0,-40.64 -25.25,-73.66 -78.59,-73.66 z m -186.69,0.72 H 158.08 c -24.41,0 -46.63,-10.1 -62.74,-26.31 C 79.29,766.34 69.31,744.12 69.31,719.8 V 167.87 c 0,-24.33 9.99,-46.54 26.03,-62.71 16.11,-16.21 38.33,-26.31 62.74,-26.31 h 1652.3 c 24.41,0 46.63,10.1 62.74,26.31 16.04,16.17 26.03,38.38 26.03,62.71 v 471.59 h -107 V 185.85 H 176.35 V 701.82 H 457.9 V 530.39 c 0,-17.36 0,-38.95 16.51,-55.46 16.51,-16.51 38.1,-16.51 55.46,-16.51 h 171.17 c 117.97,0 186.97,66.04 186.97,169.33 0,66.89 -44.45,110.07 -75.35,124.47 36.83,16.93 83.82,55.03 83.82,135.46 0,112.61 -77.47,173.57 -185.28,173.57 H 529.87 c -17.36,0 -38.95,0 -55.46,-16.51 -16.51,-16.51 -16.51,-38.1 -16.51,-55.46 z"
     id="path3"
     style="fill:#2b2a29;fill-opacity:1" /><path
     class="fil3"
     d="m 1659.7,639.46 h 372.4 c 25.65,0 46.63,21.01 46.63,46.63 v 155.45 c 0,25.62 -21.01,46.63 -46.63,46.63 h -372.4 c -25.62,0 -46.63,-20.98 -46.63,-46.63 V 686.09 c 0,-25.65 20.98,-46.63 46.63,-46.63 z"
     id="path4" /><path
     class="fil4"
     d="m 112.97,1240.3 h 372.4 c 25.65,0 46.63,20.99 46.63,46.63 v 155.45 c 0,25.64 -20.99,46.63 -46.63,46.63 h -372.4 c -25.64,0 -46.63,-20.98 -46.63,-46.63 v -155.45 c 0,-25.65 20.98,-46.63 46.63,-46.63 z"
     id="path5" /></g>
</svg>
